<?xml version="1.0" encoding="utf-8"?>
<!-- Generator: Adobe Illustrator 25.2.3, SVG Export Plug-In . SVG Version: 6.00 Build 0)  -->
<svg version="1.1" id="Layer_1" xmlns="http://www.w3.org/2000/svg" xmlns:xlink="http://www.w3.org/1999/xlink" x="0px" y="0px"
	 viewBox="0 0 281.7 378.2" style="enable-background:new 0 0 281.7 378.2;" xml:space="preserve">
<style type="text/css">
	.st0{fill:none;}
	.st1{fill:none;stroke:#80BA41;stroke-width:7.9998;stroke-miterlimit:3.9999;}
	.st2{fill:none;stroke:#80BA41;stroke-width:8;}
	.st3{fill:none;stroke:#80BA41;stroke-width:6;}
	.st4{fill:#D4D700;}
	.st5{fill:#606060;}
</style>
<g id="Group_4">
	<g id="Ellipse_1">
		
			<ellipse transform="matrix(0.5879 -0.8089 0.8089 0.5879 -19.954 93.3057)" class="st0" cx="81.6" cy="66.2" rx="40.5" ry="96.5"/>
		
			<ellipse transform="matrix(0.5879 -0.8089 0.8089 0.5879 -19.954 93.3057)" class="st1" cx="81.6" cy="66.2" rx="36.5" ry="92.5"/>
	</g>
	<g id="Ellipse_2">
		
			<ellipse transform="matrix(0.8083 -0.5888 0.5888 0.8083 -0.3289 130.3355)" class="st0" cx="200" cy="65.7" rx="96.7" ry="40.6"/>
		
			<ellipse transform="matrix(0.8089 -0.5879 0.5879 0.8089 -0.8903 129.6455)" class="st1" cx="199" cy="66.2" rx="92.5" ry="36.5"/>
	</g>
	<line id="Line_1" class="st2" x1="140.6" y1="129.2" x2="142.2" y2="378.2"/>
</g>
<circle class="st3" cx="415" cy="176" r="95"/>
<circle class="st4" cx="443.7" cy="423.5" r="95"/>
<circle class="st2" cx="566" cy="238.9" r="32.1"/>
<circle class="st2" cx="603" cy="129.2" r="32.1"/>
<circle class="st5" cx="751.3" cy="285.5" r="95"/>
<circle class="st3" cx="424.7" cy="294.8" r="50.7"/>
</svg>
